<?xml version="1.0" encoding="UTF-8"?>
<svg width="16px" height="16px" viewBox="0 0 16 16" version="1.1" xmlns="http://www.w3.org/2000/svg" xmlns:xlink="http://www.w3.org/1999/xlink">
    <title>cw_as_needed_icon</title>
    <g id="cw_as_needed_icon" stroke="none" stroke-width="1" fill="none" fill-rule="evenodd">
        <g id="CoWriter-Logo-Icon-White" transform="translate(3.500000, 4.000000)" fill="#008CCD" fill-rule="nonzero" stroke="#FFFFFF">
            <g id="Group">
                <path d="M3.22398235,-0.0195759822 C5.28656889,-1.93199066 7.26979883,-0.711327838 8.04739427,-0.0766158742 C10.5780675,-0.0108850768 10.7649007,1.7395559 10.6783199,2.69072384 C12.1142922,4.25717694 11.1525993,5.99443031 10.6570447,6.68670711 C10.2517394,9.79424064 7.53657931,9.74929375 6.29931415,9.56169509 C4.36426825,11.1154719 2.17112832,9.8088618 2.17112832,9.8088618 C2.17112832,9.8088618 1.36369722,9.32781742 0.828256813,8.40402405 C-2.177341,6.52704573 -0.852296575,4.26393309 -0.172403647,3.39441061 C-0.37158585,-0.507549239 2.05333494,-0.32791092 3.22398235,-0.0195759822 Z" id="Path" stroke-width="2"></path>
                <path d="M7.51337007,9.21242696 C7.51337007,9.72780844 7.03916129,10.1453571 6.45440918,10.1453571 C5.86869467,10.1453571 5.39407338,9.72794643 5.39407338,9.21242696 C5.39407338,8.69773539 5.86869467,8.27977272 6.45440918,8.27977272 C7.03916129,8.27977272 7.51337007,8.69759741 7.51337007,9.21242696 Z" id="Path" stroke-width="0.3"></path>
                <path d="M6.77985198,10.4300243 C6.77985198,10.8176299 6.43763519,11.1308604 6.01471081,11.1308604 C5.59261137,11.1308604 5.25053207,10.8174919 5.25053207,10.4300243 C5.25053207,10.0429708 5.59247387,9.72822241 6.01471081,9.72822241 C6.43749773,9.72822241 6.77985198,10.0429708 6.77985198,10.4300243 Z" id="Path" stroke-width="0.3"></path>
                <path d="M5.87103201,11.39 C5.87103201,11.7080601 5.62217209,11.9666477 5.31515318,11.9666477 C5.00827177,11.9666477 4.75899934,11.7080601 4.75899934,11.39 C4.75899934,11.071526 5.00813427,10.8150081 5.31515318,10.8150081 C5.62230959,10.8150081 5.87103201,11.071526 5.87103201,11.39 Z" id="Path" stroke-width="0.3"></path>
            </g>
        </g>
    </g>
</svg>