<?xml version="1.0" encoding="UTF-8"?>
<svg width="16px" height="16px" viewBox="0 0 16 16" version="1.1" xmlns="http://www.w3.org/2000/svg" xmlns:xlink="http://www.w3.org/1999/xlink">
    <title>recording</title>
    <defs>
        <filter id="filter-1">
            <feColorMatrix in="SourceGraphic" type="matrix" values="0 0 0 0 1.000000 0 0 0 0 1.000000 0 0 0 0 1.000000 0 0 0 1.000000 0"></feColorMatrix>
        </filter>
        <path d="M3.5,6.25 C4.33,6.25 4.995,5.58 4.995,4.75 L5,1.75 C5,0.92 4.33,0.25 3.5,0.25 C2.67,0.25 2,0.92 2,1.75 L2,4.75 C2,5.58 2.67,6.25 3.5,6.25 Z M6.15,4.75 C6.15,6.25 4.88,7.3 3.5,7.3 C2.12,7.3 0.85,6.25 0.85,4.75 L0,4.75 C0,6.455 1.36,7.865 3,8.11 L3,9.75 L4,9.75 L4,8.11 C5.64,7.87 7,6.46 7,4.75 L6.15,4.75 Z" id="path-2"></path>
    </defs>
    <g id="recording" stroke="none" stroke-width="1" fill="none" fill-rule="evenodd">
        <g id="Group">
            <circle id="Oval" fill="#FF0000" cx="8" cy="8" r="8"></circle>
            <g transform="translate(2.000000, 2.000000)" id="ic/mic" filter="url(#filter-1)">
                <g transform="translate(2.500000, 1.000000)">
                    <mask id="mask-3" fill="white">
                        <use xlink:href="#path-2"></use>
                    </mask>
                    <g id="Shape" fill-rule="nonzero"></g>
                    <g id="Group" mask="url(#mask-3)">
                        <g transform="translate(-2.500000, -1.000000)" id="🎨-Color">
                            <rect id="Shape" fill="#80868B" x="0" y="0" width="12" height="12"></rect>
                        </g>
                    </g>
                </g>
            </g>
        </g>
    </g>
</svg>