<?xml version="1.0" encoding="UTF-8"?>
<svg width="16px" height="16px" viewBox="0 0 16 16" version="1.1" xmlns="http://www.w3.org/2000/svg" xmlns:xlink="http://www.w3.org/1999/xlink">
    <title>mic</title>
    <g id="mic" stroke="none" stroke-width="1" fill="none" fill-rule="evenodd">
        <path d="M8,2.25 C8.6724983,2.25 9.30307953,2.51636597 9.76835678,2.98164322 C10.1338943,3.3471807 10.3778722,3.81639117 10.4657627,4.3449861 L10.4913377,4.54590634 L10.4999993,4.75166689 L10.496,6.75 L12.4045856,6.75 L12.4623305,7.18406432 C12.6303644,8.44716171 12.228507,9.67595122 11.3887176,10.6165153 C10.9110884,11.15146 10.3090447,11.5705657 9.63085689,11.8367523 L9.5,11.883 L9.5,13.75 L6.5,13.75 L6.5,11.882 L6.36042501,11.8321069 C5.85956564,11.6342127 5.39530963,11.3487926 4.9925448,10.9922776 L4.79640187,10.8081716 L4.6111988,10.6126728 C3.88298151,9.79706942 3.48209554,8.76264511 3.50172367,7.66505073 L3.51240009,7.42894177 L3.58236708,6.75 L5.5,6.75 L5.5,4.75 C5.5,4.14475153 5.71575643,3.57345589 6.09809484,3.12606213 L6.23164322,2.98164322 C6.69692047,2.51636597 7.3275017,2.25 8,2.25 Z" id="Path" fill="#FFFFFF" fill-rule="nonzero"></path>
        <g transform="translate(4.000000, 3.000000)" fill="#038CCC" fill-rule="nonzero" id="Shape">
            <path d="M1.351,4.75 L0.5,4.75 L0.506964204,4.95953138 C0.545539846,5.54505621 0.744452043,6.10480274 1.08011603,6.59383954 L1.2123542,6.77382607 L1.35713646,6.94665702 C1.77332127,7.412784 2.31075044,7.76707144 2.90293167,7.96600843 L3.12743627,8.03324277 L3.5,8.1314421 L3.5,9.75 L4.5,9.75 L4.5,8.14355312 L5.07682598,7.97433543 C5.67795129,7.77790239 6.22266998,7.42102267 6.64277997,6.95049952 C7.1022509,6.43589207 7.39043828,5.81542562 7.47431854,5.15406087 L7.4946664,4.93218031 L7.498,4.75 L6.648,4.75 L6.64729258,4.86545744 C6.62416253,5.38807291 6.44422697,5.87234714 6.13154586,6.2742224 L6.00811499,6.42097712 L5.88661985,6.54602486 C5.3872996,7.02650283 4.70508754,7.3 4,7.3 C3.29491246,7.3 2.6127004,7.02650283 2.11338015,6.54602486 C1.69641654,6.14479572 1.43702753,5.6283761 1.36845286,5.05763346 L1.35270744,4.86545745 L1.351,4.75 Z M4,0.25 C3.59527037,0.25 3.21823535,0.409264649 2.93875,0.688750001 C2.69420032,0.933299683 2.54169461,1.25253583 2.50738927,1.59966101 L2.5,1.75 L2.499,3.75 L2.53129779,3.75 L2.499,3.891 L2.4994997,4.7276382 L2.50615127,4.88753577 C2.53785862,5.23989649 2.69187209,5.56437209 2.93875,5.81125 C3.21823535,6.09073535 3.59527037,6.25 4,6.25 C4.40444962,6.25 4.77982068,6.09111263 5.05807365,5.81192904 C5.30156643,5.56762191 5.45346858,5.24827689 5.48764001,4.90004347 L5.49500069,4.74916644 L5.496,3.877 L5.46870218,3.75 L5.497,3.75 L5.50049894,1.77316482 L5.49384387,1.61299541 C5.46213148,1.26014931 5.30817081,0.935670811 5.06125,0.688750001 C4.78176465,0.409264649 4.40472963,0.25 4,0.25 Z"></path>
        </g>
    </g>
</svg>