<?xml version="1.0" encoding="utf-8"?><svg width="144" height="144" viewBox="0 0 144 144" xmlns="http://www.w3.org/2000/svg" xmlns:xlink="http://www.w3.org/1999/xlink"><svg width="24" height="24" viewBox="0 0 24 24" id="account_face" xmlns="http://www.w3.org/2000/svg"><path fill="rgba(0, 0, 0, 0.56)" d="M12 20.016c4.406 0 8.016-3.609 8.016-8.016 0-.797-.141-1.547-.328-2.25-.703.188-1.453.234-2.25.234-3.375 0-6.328-1.641-8.156-4.219a10.179 10.179 0 0 1-5.25 5.391c-.047.281-.047.563-.047.844 0 4.406 3.609 8.016 8.016 8.016zm0-18c5.531 0 9.984 4.453 9.984 9.984S17.531 21.984 12 21.984 2.016 17.531 2.016 12 6.469 2.016 12 2.016zm3 9.75c.703 0 1.266.516 1.266 1.219s-.563 1.266-1.266 1.266-1.266-.563-1.266-1.266.563-1.219 1.266-1.219zm-6 0c.703 0 1.266.516 1.266 1.219S9.703 14.251 9 14.251s-1.266-.563-1.266-1.266.563-1.219 1.266-1.219z"/></svg><svg width="24" height="24" viewBox="0 0 24 24" id="add" x="24" xmlns="http://www.w3.org/2000/svg"><path fill="rgba(0,0,0,.54)" d="M19 13h-6v6h-2v-6H5v-2h6V5h2v6h6v2z"/></svg><svg width="24" height="24" viewBox="0 0 24 24" id="add_circle" y="24" xmlns="http://www.w3.org/2000/svg"><circle cx="12" cy="12" r="12" fill="#7F7F7F"/><path fill="#fff" d="M17.016 12.984v-1.969h-4.031V6.984h-1.969v4.031H6.985v1.969h4.031v4.031h1.969v-4.031h4.031z"/></svg><svg width="24" height="24" viewBox="0 0 24 24" id="arrow_back_grey" x="24" y="24" xmlns="http://www.w3.org/2000/svg"><path fill="#7F7B7B" d="M20.016 11.016v1.969H7.828l5.578 5.625L12 20.016 3.984 12 12 3.984l1.406 1.406-5.578 5.625h12.188z"/></svg><svg width="24" height="24" viewBox="0 0 24 24" id="bookmark" x="48" xmlns="http://www.w3.org/2000/svg"><path fill="rgba(0, 0, 0, 0.54)" d="M17.016 3c1.078 0 1.969.938 1.969 2.016V21l-6.984-3-6.984 3V5.016C5.017 3.938 5.908 3 6.986 3h10.031z"/></svg><svg width="24" height="24" viewBox="0 0 24 24" id="check" x="48" y="24" xmlns="http://www.w3.org/2000/svg"><path fill="#7F7B7B" d="M9 16.172 19.594 5.578 21 6.984l-12 12-5.578-5.578L4.828 12z"/></svg><svg width="24" height="24" viewBox="0 0 24 24" id="close" y="48" xmlns="http://www.w3.org/2000/svg"><path fill="#7F7B7B" d="M18.984 6.422 13.406 12l5.578 5.578-1.406 1.406L12 13.406l-5.578 5.578-1.406-1.406L10.594 12 5.016 6.422l1.406-1.406L12 10.594l5.578-5.578z"/></svg><svg width="24" height="24" viewBox="0 0 24 24" id="developer_mode" x="24" y="48" xmlns="http://www.w3.org/2000/svg"><path fill="rgba(0, 0, 0, 0.56)" d="M17.016 18.984v-1.969h1.969v3.984c0 1.078-.891 2.016-1.969 2.016H6.985c-1.078 0-1.969-.938-1.969-2.016v-3.984h1.969v1.969h10.031zm-7.032-3.796-1.406 1.406L3.984 12l4.594-4.594 1.406 1.406L6.843 12zm5.438 1.406-1.406-1.406L17.157 12l-3.141-3.188 1.406-1.406L20.016 12zM6.984 5.016v1.969H5.015V3.001c0-1.078.891-2.016 1.969-2.016l10.031.047c1.078 0 1.969.891 1.969 1.969v3.984h-1.969V5.016H6.984z"/></svg><svg width="24" height="24" viewBox="0 0 24 24" id="directions_run" x="48" y="48" xmlns="http://www.w3.org/2000/svg"><path fill="#7F7B7B" d="M9.891 19.359 2.907 18l.375-2.016 4.922.984 1.594-8.109-1.828.703v3.422H6.001V8.296l5.203-2.203c.281 0 .516-.094.797-.094.703 0 1.266.375 1.688.984l.984 1.594c.797 1.406 2.391 2.391 4.313 2.391v2.016a7.289 7.289 0 0 1-5.484-2.484l-.609 3 2.109 1.969v7.5h-2.016v-6L10.877 15zM13.5 5.484c-1.078 0-2.016-.938-2.016-2.016s.938-1.969 2.016-1.969 1.969.891 1.969 1.969-.891 2.016-1.969 2.016z"/></svg><svg width="24" height="24" viewBox="0 0 24 24" id="dji_sign_out" x="72" xmlns="http://www.w3.org/2000/svg"><path fill="rgba(0, 0, 0, 0.56)" d="M14.09 15.59 15.5 17l5-5-5-5-1.41 1.41L16.67 11H7v2h9.67l-2.58 2.59zM19 3a2 2 0 0 1 2 2v3h-2V5H5v14h14v-3h2v3a2 2 0 0 1-2 2H5c-1.1 0-2-.9-2-2V5c0-1.1.9-2 2-2h14z"/></svg><svg width="24" height="24" viewBox="0 0 24 24" id="exit_to_app" x="72" y="24" xmlns="http://www.w3.org/2000/svg"><path fill="#7F7B7B" d="M18.984 3C20.062 3 21 3.938 21 5.016v13.969c0 1.078-.938 2.016-2.016 2.016H5.015c-1.125 0-2.016-.938-2.016-2.016v-3.984h2.016v3.984h13.969V5.016H5.015V9H2.999V5.016C2.999 3.938 3.89 3 5.015 3h13.969zm-8.906 12.609 2.578-2.625H3v-1.969h9.656L10.078 8.39l1.406-1.406L16.5 12l-5.016 5.016z"/></svg><svg width="24" height="24" viewBox="0 0 24 24" id="format_size" x="72" y="48" xmlns="http://www.w3.org/2000/svg"><path fill="#7F7B7B" d="M3 12V9h9v3H9v6.984H6V12H3zm6-8.016h12.984v3h-4.969v12h-3v-12H8.999v-3z"/></svg><svg width="24" height="24" viewBox="0 0 24 24" id="group_add" y="72" xmlns="http://www.w3.org/2000/svg"><path fill="#7F7B7B" d="M12.984 12.984c2.016 0 6 .984 6 3V18h-12v-2.016c0-2.016 3.984-3 6-3zm6.657.188C21.657 13.5 24 14.438 24 15.985v2.016h-3v-2.016c0-1.172-.516-2.063-1.359-2.813zm-6.657-2.156c-1.641 0-3-1.359-3-3s1.359-3 3-3 3 1.359 3 3-1.359 3-3 3zm5.016 0c-.328 0-.609-.047-.891-.141.563-.797.891-1.781.891-2.859s-.328-2.063-.891-2.859c.281-.094.563-.141.891-.141 1.641 0 3 1.359 3 3s-1.359 3-3 3zM8.016 9.984V12h-3v3H3v-3H0V9.984h3v-3h2.016v3h3z"/></svg><svg width="24" height="24" viewBox="0 0 24 24" id="import_contacts" x="24" y="72" xmlns="http://www.w3.org/2000/svg"><path fill="#7F7B7B" d="M21 18.516V6.985c-1.078-.328-2.297-.469-3.516-.469-1.688 0-4.125.656-5.484 1.5V19.5c1.359-.844 3.797-1.5 5.484-1.5 1.219 0 2.438.188 3.516.516zM17.484 4.5c2.072 0 4.254.517 5.531 1.5v14.578c0 .234-.281.516-.516.516-.094 0-.141 0-.234-.047-1.406-.75-3.141-1.031-4.781-1.031-1.688 0-4.125.656-5.484 1.5-1.453-1.078-3.516-1.5-5.484-1.5-1.453 0-3.422.422-4.781 1.078-.094 0-.141.047-.234.047-.234 0-.516-.234-.516-.469V6c1.453-1.078 3.563-1.5 5.531-1.5S10.547 4.922 12 6c1.453-1.078 3.516-1.5 5.484-1.5z"/></svg><svg width="24" height="24" viewBox="0 0 24 24" id="import_contacts_white" x="48" y="72" xmlns="http://www.w3.org/2000/svg"><path fill="#fff" d="M21 18.516V6.985c-1.078-.328-2.297-.469-3.516-.469-1.688 0-4.125.656-5.484 1.5V19.5c1.359-.844 3.797-1.5 5.484-1.5 1.219 0 2.438.188 3.516.516zM17.484 4.5c2.072 0 4.254.517 5.531 1.5v14.578c0 .234-.281.516-.516.516-.094 0-.141 0-.234-.047-1.406-.75-3.141-1.031-4.781-1.031-1.688 0-4.125.656-5.484 1.5-1.453-1.078-3.516-1.5-5.484-1.5-1.453 0-3.422.422-4.781 1.078-.094 0-.141.047-.234.047-.234 0-.516-.234-.516-.469V6c1.453-1.078 3.563-1.5 5.531-1.5S10.547 4.922 12 6c1.453-1.078 3.516-1.5 5.484-1.5z"/></svg><svg width="24" height="24" viewBox="0 0 24 24" id="language" x="72" y="72" xmlns="http://www.w3.org/2000/svg"><path fill="rgba(0, 0, 0, 0.54)" d="M16.359 14.016h3.375c.141-.656.281-1.313.281-2.016s-.141-1.359-.281-2.016h-3.375c.094.656.141 1.313.141 2.016s-.047 1.359-.141 2.016zm-1.781 5.531a8.007 8.007 0 0 0 4.359-3.563h-2.953a15.676 15.676 0 0 1-1.406 3.563zm-.234-5.531c.094-.656.141-1.313.141-2.016s-.047-1.359-.141-2.016H9.656c-.094.656-.141 1.313-.141 2.016s.047 1.359.141 2.016h4.688zM12 19.969c.844-1.219 1.5-2.531 1.922-3.984h-3.844c.422 1.453 1.078 2.766 1.922 3.984zM8.016 8.016a15.676 15.676 0 0 1 1.406-3.563 8.007 8.007 0 0 0-4.359 3.563h2.953zm-2.953 7.968a8.015 8.015 0 0 0 4.359 3.563 15.676 15.676 0 0 1-1.406-3.563H5.063zm-.797-1.968h3.375C7.547 13.36 7.5 12.703 7.5 12s.047-1.359.141-2.016H4.266c-.141.656-.281 1.313-.281 2.016s.141 1.359.281 2.016zM12 4.031c-.844 1.219-1.5 2.531-1.922 3.984h3.844C13.5 6.562 12.844 5.249 12 4.031zm6.938 3.985a8.015 8.015 0 0 0-4.359-3.563 15.676 15.676 0 0 1 1.406 3.563h2.953zm-6.938-6c5.531 0 9.984 4.453 9.984 9.984S17.531 21.984 12 21.984 2.016 17.531 2.016 12 6.469 2.016 12 2.016z"/></svg><svg width="24" height="24" viewBox="0 0 24 24" id="lock" x="96" xmlns="http://www.w3.org/2000/svg"><path fill="#7F7B7B" d="M15.094 8.016V6c0-1.688-1.406-3.094-3.094-3.094S8.906 4.312 8.906 6v2.016h6.188zm-3.094 9c1.078 0 2.016-.938 2.016-2.016s-.938-2.016-2.016-2.016-2.016.938-2.016 2.016.938 2.016 2.016 2.016zm6-9c1.078 0 2.016.891 2.016 1.969v10.031c0 1.078-.938 1.969-2.016 1.969H6c-1.078 0-2.016-.891-2.016-1.969V9.985c0-1.078.938-1.969 2.016-1.969h.984V6C6.984 3.234 9.234.984 12 .984S17.016 3.234 17.016 6v2.016H18z"/></svg><svg width="24" height="24" viewBox="0 0 24 24" id="mic" x="96" y="24" xmlns="http://www.w3.org/2000/svg"><path fill="#7F7B7B" d="M17.297 11.016h1.688c0 3.422-2.719 6.234-6 6.703V21h-1.969v-3.281c-3.281-.469-6-3.281-6-6.703h1.688c0 3 2.531 5.063 5.297 5.063s5.297-2.063 5.297-5.063zm-5.297 3a3.02 3.02 0 0 1-3-3v-6c0-1.641 1.359-3 3-3s3 1.359 3 3v6c0 1.641-1.359 3-3 3z"/></svg><svg width="24" height="24" viewBox="0 0 24 24" id="mic_blue" x="96" y="48" xmlns="http://www.w3.org/2000/svg"><path fill="#008CCD" d="M17.297 11.016h1.688c0 3.422-2.719 6.234-6 6.703V21h-1.969v-3.281c-3.281-.469-6-3.281-6-6.703h1.688c0 3 2.531 5.063 5.297 5.063s5.297-2.063 5.297-5.063zm-5.297 3a3.02 3.02 0 0 1-3-3v-6c0-1.641 1.359-3 3-3s3 1.359 3 3v6c0 1.641-1.359 3-3 3z"/></svg><svg width="24" height="24" viewBox="0 0 24 24" id="mic_off" x="96" y="72" xmlns="http://www.w3.org/2000/svg"><path fill="#7F7B7B" d="M4.266 3 21 19.734 19.734 21l-4.172-4.172c-.75.469-1.688.75-2.578.891V21h-1.969v-3.281c-3.281-.469-6-3.281-6-6.703h1.688c0 3 2.531 5.063 5.297 5.063.797 0 1.594-.188 2.297-.516l-1.641-1.641a2.764 2.764 0 0 1-.656.094 3.02 3.02 0 0 1-3-3v-.75l-6-6zM15 11.156 9 5.203v-.188c0-1.641 1.359-3 3-3s3 1.359 3 3v6.141zm3.984-.14a6.613 6.613 0 0 1-.891 3.281l-1.219-1.266a4.706 4.706 0 0 0 .422-2.016h1.688z"/></svg><svg width="24" height="24" viewBox="0 0 24 24" id="mic_white" y="96" xmlns="http://www.w3.org/2000/svg"><path fill="#fff" d="M17.297 11.016h1.688c0 3.422-2.719 6.234-6 6.703V21h-1.969v-3.281c-3.281-.469-6-3.281-6-6.703h1.688c0 3 2.531 5.063 5.297 5.063s5.297-2.063 5.297-5.063zm-5.297 3a3.02 3.02 0 0 1-3-3v-6c0-1.641 1.359-3 3-3s3 1.359 3 3v6c0 1.641-1.359 3-3 3z"/></svg><svg width="24" height="24" viewBox="0 0 24 24" id="music_note" x="24" y="96" xmlns="http://www.w3.org/2000/svg"><path fill="#7F7B7B" d="M12 3h6v3.984h-3.984v10.031c0 2.203-1.828 3.984-4.031 3.984s-3.984-1.781-3.984-3.984 1.781-4.031 3.984-4.031c.75 0 1.406.234 2.016.563V3z"/></svg><svg width="24" height="24" viewBox="0 0 24 24" id="pause" x="48" y="96" xmlns="http://www.w3.org/2000/svg"><path d="M14.016 5.016H18v13.969h-3.984V5.016zM6 18.984V5.015h3.984v13.969H6z"/></svg><svg width="24" height="24" viewBox="0 0 24 24" id="person_add" x="72" y="96" xmlns="http://www.w3.org/2000/svg"><path d="M15 14.016c2.672 0 8.016 1.313 8.016 3.984v2.016H6.985V18c0-2.672 5.344-3.984 8.016-3.984zM6 9.984h3V12H6v3H3.984v-3h-3V9.984h3v-3H6v3zM15 12c-2.203 0-3.984-1.781-3.984-3.984S12.797 3.985 15 3.985s3.984 1.828 3.984 4.031S17.203 12 15 12z"/></svg><svg width="24" height="24" viewBox="0 0 24 24" id="play_arrow" x="96" y="96" xmlns="http://www.w3.org/2000/svg"><path d="M8.016 5.016 18.985 12 8.016 18.984V5.015z"/></svg><svg width="24" height="24" viewBox="0 0 24 24" id="power_settings_new" x="120" xmlns="http://www.w3.org/2000/svg"><path fill="rgba(0, 0, 0, 0.56)" d="M17.813 5.156c1.922 1.641 3.188 4.125 3.188 6.844 0 4.969-4.031 9-9 9s-9-4.031-9-9c0-2.719 1.266-5.203 3.188-6.844l1.406 1.406A7.042 7.042 0 0 0 5.017 12c0 3.891 3.094 6.984 6.984 6.984S18.985 15.89 18.985 12c0-2.203-.984-4.125-2.578-5.391zM12.984 3v9.984h-1.969V3h1.969z"/></svg><svg width="24" height="24" viewBox="0 0 24 24" id="read" x="120" y="24" xmlns="http://www.w3.org/2000/svg"><path fill="#7F7B7B" d="M14.016 3.234C18.047 4.125 21 7.734 21 12s-2.953 7.875-6.984 8.766v-2.063c2.906-.844 4.969-3.516 4.969-6.703s-2.063-5.859-4.969-6.703V3.234zM16.5 12a4.451 4.451 0 0 1-2.484 4.031V7.968c1.5.75 2.484 2.25 2.484 4.031zM3 9h3.984L12 3.984v16.031l-5.016-5.016H3v-6z"/></svg><svg width="24" height="24" viewBox="0 0 24 24" id="read_white" x="120" y="48" xmlns="http://www.w3.org/2000/svg"><path fill="#fff" d="M14.016 3.234C18.047 4.125 21 7.734 21 12s-2.953 7.875-6.984 8.766v-2.063c2.906-.844 4.969-3.516 4.969-6.703s-2.063-5.859-4.969-6.703V3.234zM16.5 12a4.451 4.451 0 0 1-2.484 4.031V7.968c1.5.75 2.484 2.25 2.484 4.031zM3 9h3.984L12 3.984v16.031l-5.016-5.016H3v-6z"/></svg><svg width="24" height="24" viewBox="0 0 24 24" id="remove_circle" x="120" y="72" xmlns="http://www.w3.org/2000/svg"><circle cx="12" cy="12" r="12" fill="#7F7F7F"/><path fill="#fff" d="M17.016 12.984v-1.969H6.985v1.969h10.031z"/></svg><svg width="24" height="24" viewBox="0 0 24 24" id="search" x="120" y="96" xmlns="http://www.w3.org/2000/svg"><path fill="rgba(0,0,0,.54)" d="M9.516 14.016c2.484 0 4.5-2.016 4.5-4.5s-2.016-4.5-4.5-4.5-4.5 2.016-4.5 4.5 2.016 4.5 4.5 4.5zm6 0 4.969 4.969-1.5 1.5-4.969-4.969v-.797l-.281-.281c-1.125.984-2.625 1.547-4.219 1.547C5.907 15.985 3 13.126 3 9.516S5.906 3 9.516 3s6.469 2.906 6.469 6.516c0 1.594-.563 3.094-1.547 4.219l.281.281h.797z"/></svg><svg width="24" height="24" viewBox="0 0 24 24" id="selected_text" y="120" xmlns="http://www.w3.org/2000/svg"><path fill="#7F7B7B" d="M18.005 21h2v-2h-2v2zm4-12h2V7h-2v2zM.05 19c0 1.1.9 2 2 2h9.955V3H2.05c-1.1 0-2 .9-2 2v14zM22.005 3v2h2c0-1.1-.9-2-2-2zm-8 20h2V1h-2v22zm8-6h2v-2h-2v2zm-4-12h2V3h-2v2zm4 8h2v-2h-2v2zm0 8c1.1 0 2-.9 2-2h-2v2zm-17.15-8.35h2.3L6.005 9l-1.15 3.65zM8.305 16l-.7-2h-3.2l-.7 2h-1.9l3.2-9h2l3.2 9h-1.9z"/></svg><svg width="24" height="24" viewBox="0 0 24 24" id="settings" x="24" y="120" xmlns="http://www.w3.org/2000/svg"><path fill="rgba(0, 0, 0, 0.56)" d="M12 15.516c1.922 0 3.516-1.594 3.516-3.516S13.922 8.484 12 8.484 8.484 10.078 8.484 12s1.594 3.516 3.516 3.516zm7.453-2.532 2.109 1.641c.188.141.234.422.094.656L19.64 18.75c-.141.234-.375.281-.609.188l-2.484-.984c-.516.375-1.078.75-1.688.984l-.375 2.625c-.047.234-.234.422-.469.422H9.984c-.234 0-.422-.188-.469-.422l-.375-2.625a6.145 6.145 0 0 1-1.688-.984l-2.484.984c-.234.094-.469.047-.609-.188l-2.016-3.469c-.141-.234-.094-.516.094-.656l2.109-1.641c-.047-.328-.047-.656-.047-.984s0-.656.047-.984L2.437 9.375c-.188-.141-.234-.422-.094-.656L4.359 5.25c.141-.234.375-.281.609-.188l2.484.984c.516-.375 1.078-.75 1.688-.984l.375-2.625c.047-.234.234-.422.469-.422h4.031c.234 0 .422.188.469.422l.375 2.625a6.145 6.145 0 0 1 1.688.984l2.484-.984c.234-.094.469-.047.609.188l2.016 3.469c.141.234.094.516-.094.656l-2.109 1.641c.047.328.047.656.047.984s0 .656-.047.984z"/></svg><svg width="24" height="24" viewBox="0 0 24 24" id="speech_back" x="48" y="120" xmlns="http://www.w3.org/2000/svg"><path d="M10.778 19.026v-6.123h-.13l-2.38.876v.859l1.496-.511v4.899h1.014zm2.963.084c.671 0 1.17-.223 1.498-.668s.492-1.107.492-1.984v-1.056c-.008-.852-.177-1.492-.505-1.919s-.826-.641-1.494-.641c-.673 0-1.174.219-1.502.658s-.492 1.097-.492 1.974v1.056c.008.852.18 1.495.513 1.93s.831.652 1.49.652zm0-.813c-.341 0-.591-.14-.75-.419s-.239-.704-.239-1.274v-1.383c.008-.536.091-.931.247-1.184s.401-.379.733-.379c.341 0 .59.133.746.4s.235.687.235 1.259v1.379c-.008.55-.091.955-.247 1.213s-.398.388-.725.388zM11.76 4.536c4.753 0 8.771 2.987 10.192 7.118l-2.423.769C18.456 9.278 15.379 7 11.76 7c-2.004 0-3.813.71-5.234 1.854l2.678 2.583H2.048V4.536l2.658 2.563a10.983 10.983 0 0 1 7.053-2.563z"/></svg><svg width="24" height="24" viewBox="0 0 24 24" id="translate" x="72" y="120" xmlns="http://www.w3.org/2000/svg"><path fill="rgba(0,0,0,0.54)" d="M15.891 17.016h3.234l-1.641-4.359zm2.625-7.032 4.5 12H21l-1.125-3h-4.734l-1.125 3H12l4.5-12h2.016zm-5.625 5.063-.797 2.063L9 14.016l-5.016 4.969-1.406-1.406 5.109-5.016a17.762 17.762 0 0 1-3-4.547h2.016A15.598 15.598 0 0 0 9 11.344 15.312 15.312 0 0 0 12.188 6H.985V3.984h7.031V2.015h1.969v1.969h7.031V6h-2.953c-.75 2.344-1.969 4.594-3.703 6.516l-.047.047z"/></svg><svg width="24" height="24" viewBox="0 0 24 24" id="volume_up" x="96" y="120" xmlns="http://www.w3.org/2000/svg"><path fill="#7F7B7B" d="M14.016 3.234C18.047 4.125 21 7.734 21 12s-2.953 7.875-6.984 8.766v-2.063c2.906-.844 4.969-3.516 4.969-6.703s-2.063-5.859-4.969-6.703V3.234zM16.5 12a4.451 4.451 0 0 1-2.484 4.031V7.968c1.5.75 2.484 2.25 2.484 4.031zM3 9h3.984L12 3.984v16.031l-5.016-5.016H3v-6z"/></svg></svg>